<svg width="42" height="45" viewBox="0 0 42 45" fill="none" xmlns="http://www.w3.org/2000/svg">
<g filter="url(#filter0_d_180_122)">
<path d="M14 3.33325H28C33.3333 3.33325 37.6667 7.66659 37.6667 12.9999V26.9999C37.6667 29.5637 36.6482 32.0224 34.8354 33.8353C33.0225 35.6481 30.5638 36.6666 28 36.6666H14C8.66668 36.6666 4.33334 32.3333 4.33334 26.9999V12.9999C4.33334 10.4362 5.35179 7.9774 7.16464 6.16455C8.9775 4.3517 11.4363 3.33325 14 3.33325ZM13.6667 6.66659C12.0754 6.66659 10.5493 7.29873 9.42404 8.42394C8.29882 9.54916 7.66668 11.0753 7.66668 12.6666V27.3333C7.66668 30.6499 10.35 33.3333 13.6667 33.3333H28.3333C29.9246 33.3333 31.4508 32.7011 32.576 31.5759C33.7012 30.4507 34.3333 28.9245 34.3333 27.3333V12.6666C34.3333 9.34992 31.65 6.66659 28.3333 6.66659H13.6667ZM29.75 9.16658C30.3025 9.16658 30.8324 9.38608 31.2232 9.77678C31.6139 10.1675 31.8333 10.6974 31.8333 11.2499C31.8333 11.8025 31.6139 12.3324 31.2232 12.7231C30.8324 13.1138 30.3025 13.3333 29.75 13.3333C29.1975 13.3333 28.6676 13.1138 28.2769 12.7231C27.8862 12.3324 27.6667 11.8025 27.6667 11.2499C27.6667 10.6974 27.8862 10.1675 28.2769 9.77678C28.6676 9.38608 29.1975 9.16658 29.75 9.16658ZM21 11.6666C23.2101 11.6666 25.3298 12.5446 26.8926 14.1074C28.4554 15.6702 29.3333 17.7898 29.3333 19.9999C29.3333 22.2101 28.4554 24.3297 26.8926 25.8925C25.3298 27.4553 23.2101 28.3333 21 28.3333C18.7899 28.3333 16.6703 27.4553 15.1075 25.8925C13.5447 24.3297 12.6667 22.2101 12.6667 19.9999C12.6667 17.7898 13.5447 15.6702 15.1075 14.1074C16.6703 12.5446 18.7899 11.6666 21 11.6666ZM21 14.9999C19.6739 14.9999 18.4022 15.5267 17.4645 16.4644C16.5268 17.4021 16 18.6738 16 19.9999C16 21.326 16.5268 22.5978 17.4645 23.5355C18.4022 24.4731 19.6739 24.9999 21 24.9999C22.3261 24.9999 23.5979 24.4731 24.5355 23.5355C25.4732 22.5978 26 21.326 26 19.9999C26 18.6738 25.4732 17.4021 24.5355 16.4644C23.5979 15.5267 22.3261 14.9999 21 14.9999Z" fill="#0D0F0B"/>
</g>
<defs>
<filter id="filter0_d_180_122" x="-3" y="0" width="48" height="48" filterUnits="userSpaceOnUse" color-interpolation-filters="sRGB">
<feFlood flood-opacity="0" result="BackgroundImageFix"/>
<feColorMatrix in="SourceAlpha" type="matrix" values="0 0 0 0 0 0 0 0 0 0 0 0 0 0 0 0 0 0 127 0" result="hardAlpha"/>
<feOffset dy="4"/>
<feGaussianBlur stdDeviation="2"/>
<feComposite in2="hardAlpha" operator="out"/>
<feColorMatrix type="matrix" values="0 0 0 0 0 0 0 0 0 0 0 0 0 0 0 0 0 0 0.25 0"/>
<feBlend mode="normal" in2="BackgroundImageFix" result="effect1_dropShadow_180_122"/>
<feBlend mode="normal" in="SourceGraphic" in2="effect1_dropShadow_180_122" result="shape"/>
</filter>
</defs>
</svg>
